<svg width="400" height="77" fill="none" xmlns="http://www.w3.org/2000/svg" viewBox="0 0 400 77">
    <path fill="#fff" d="M0 0h400v77H0z"/>
    <g clip-path="url(#clip0)" fill="#000">
        <path d="M25.792 11.335c.535 0 1.071.15 1.56.425L59.791 30.81c1.024.6 1.63 1.675 1.63 2.9 0 1.224-.606 2.3-1.63 2.9L27.352 55.656c-1.001.6-2.236.575-3.237-.05-.955-.6-1.537-1.675-1.537-2.825v-4.125c0-.825.629-1.5 1.398-1.5.768 0 1.397.675 1.397 1.5v4.125c0 .1.046.2.163.25.046.025.256.125.465 0L58.44 33.984c.116-.076.163-.15.163-.25s-.047-.2-.163-.276L26 14.41c-.21-.125-.419-.025-.465 0-.094.075-.163.15-.163.25v4.125c0 .825-.63 1.5-1.398 1.5-.768 0-1.397-.675-1.397-1.5V14.66c0-1.175.56-2.225 1.537-2.825.536-.325 1.118-.5 1.677-.5z"/>
        <path d="M3.214 11.335c.535 0 1.07.15 1.56.425L37.212 30.81c1.025.6 1.63 1.675 1.63 2.9 0 1.224-.605 2.3-1.63 2.9L4.774 55.656c-1.002.6-2.236.575-3.237-.05C.582 55.007 0 53.932 0 52.782V14.66c0-1.175.559-2.225 1.537-2.825.536-.325 1.094-.5 1.677-.5zm0 41.772c.07 0 .14-.025.21-.05l32.46-19.074c.117-.075.164-.15.164-.25s-.047-.2-.163-.274L3.446 14.41c-.21-.125-.419-.025-.465 0-.093.075-.163.15-.163.25v38.122c0 .1.046.2.163.25.046.025.116.075.233.075z"/>
    </g>
    <path d="M114.368 56.091H80.354v-2.544l28.657-43.186H81.66V7.147h31.938V9.69L84.874 52.878h29.494v3.213zM126.085 19.701V43.27c0 3.66.77 6.328 2.31 8.002 1.54 1.651 3.928 2.477 7.164 2.477 4.33 0 7.51-1.094 9.541-3.28 2.053-2.188 3.08-5.748 3.08-10.68V19.7h3.281v36.39h-2.812l-.603-5.021h-.201c-2.365 3.794-6.572 5.691-12.621 5.691-8.28 0-12.42-4.43-12.42-13.29V19.7h3.281zM166.961 56.091h-3.314V4h3.314v52.091zM182.06 19.701V43.27c0 3.66.77 6.328 2.31 8.002 1.54 1.651 3.928 2.477 7.164 2.477 4.33 0 7.51-1.094 9.541-3.28 2.053-2.188 3.08-5.748 3.08-10.68V19.7h3.281v36.39h-2.812l-.603-5.021h-.201c-2.366 3.794-6.573 5.691-12.621 5.691-8.28 0-12.42-4.43-12.42-13.29V19.7h3.281zM249.919 21.208c0 4.731-1.607 8.358-4.821 10.88-3.214 2.522-7.767 3.783-13.659 3.783h-7.566v20.22h-3.414V7.147h11.985c11.65 0 17.475 4.687 17.475 14.06zm-26.046 11.717h6.729c5.513 0 9.497-.904 11.952-2.712 2.455-1.83 3.683-4.787 3.683-8.872 0-3.771-1.161-6.561-3.482-8.369-2.321-1.83-5.915-2.745-10.78-2.745h-8.102v22.698zM263.042 56.091h-3.314V4h3.314v52.091zM297.357 56.091l-.837-5.758h-.268c-1.83 2.344-3.716 4.006-5.657 4.988-1.92.96-4.196 1.44-6.83 1.44-3.571 0-6.349-.915-8.336-2.745-1.986-1.83-2.979-4.363-2.979-7.6 0-3.548 1.473-6.305 4.419-8.269 2.968-1.964 7.253-3.002 12.855-3.113l6.93-.201v-2.41c0-3.46-.703-6.071-2.109-7.834-1.406-1.763-3.671-2.645-6.796-2.645-3.37 0-6.863.938-10.479 2.812l-1.238-2.879c3.995-1.875 7.945-2.812 11.851-2.812 3.995 0 6.974 1.038 8.938 3.113 1.987 2.076 2.98 5.312 2.98 9.709v24.204h-2.444zm-13.391-2.343c3.883 0 6.941-1.105 9.173-3.314 2.254-2.232 3.381-5.323 3.381-9.274v-3.582l-6.361.268c-5.111.246-8.76 1.049-10.947 2.41-2.165 1.34-3.247 3.438-3.247 6.294 0 2.277.692 4.051 2.075 5.323 1.406 1.25 3.382 1.875 5.926 1.875zM305.526 19.701h3.414l7.7 20.422c2.344 6.271 3.828 10.5 4.453 12.688h.201c.937-2.88 2.466-7.176 4.586-12.89l7.7-20.22h3.415l-16.304 42.282c-1.317 3.438-2.421 5.759-3.314 6.964-.893 1.205-1.942 2.109-3.147 2.712-1.183.602-2.623.903-4.319.903-1.272 0-2.689-.234-4.251-.703V68.98c1.294.358 2.689.536 4.184.536 1.139 0 2.143-.268 3.013-.803.871-.536 1.652-1.373 2.344-2.511.714-1.116 1.529-2.902 2.444-5.357.937-2.432 1.54-4.017 1.807-4.754l-13.926-36.39zM357.785 56.761c-5.29 0-9.419-1.63-12.387-4.888-2.946-3.258-4.419-7.822-4.419-13.692 0-5.803 1.428-10.445 4.285-13.927 2.857-3.504 6.707-5.256 11.55-5.256 4.285 0 7.666 1.495 10.143 4.486 2.478 2.99 3.716 7.053 3.716 12.186v2.678H344.46c.045 5 1.206 8.816 3.482 11.45 2.299 2.633 5.58 3.95 9.843 3.95 2.075 0 3.894-.145 5.456-.435 1.585-.29 3.583-.915 5.993-1.875v3.013c-2.053.893-3.95 1.495-5.691 1.808-1.741.335-3.661.502-5.758.502zm-.971-34.817c-3.504 0-6.316 1.16-8.437 3.482-2.12 2.299-3.359 5.624-3.716 9.976h22.497c0-4.218-.915-7.51-2.745-9.876-1.83-2.388-4.363-3.582-7.599-3.582zM395.045 18.998c1.54 0 3.192.156 4.955.469l-.636 3.18a19.391 19.391 0 00-4.72-.569c-3.103 0-5.647 1.317-7.633 3.95-1.987 2.634-2.98 5.96-2.98 9.977V56.09h-3.314v-36.39h2.812l.335 6.562h.234c1.495-2.679 3.091-4.553 4.787-5.625 1.697-1.093 3.75-1.64 6.16-1.64z"
          fill="#000"/>
    <defs>
        <clipPath id="clip0">
            <path fill="#fff" transform="translate(0 11.335)" d="M0 0h61.421v44.756H0z"/>
        </clipPath>
    </defs>
</svg>